:FULLY-SPECIFIED
:FORCE-ALL-JOINTS-BE-3DOF
:DEGREES
510
root 5.51282 16.4525 -5.46444 -136.033 88.0384 -141.832
lfemur -24.4649 -16.2261 -21.972
ltibia 47.4666 0 0
lfoot -25.8017 -5.88786 0
ltoes 13.5008 0 0
rfemur -57.8586 5.47604 8.55736
rtibia 68.0398 0 0
rfoot 7.92363 10.5844 0
rtoes -16.8012 0 0
lowerback 6.54232 -0.378832 -1.69868
upperback 0.697232 -0.541053 1.65583
thorax -2.90665 -0.239443 2.70802
lowerneck -8.80251 -10.5701 -2.49436
upperneck 10.0431 -14.1547 2.34995
head 4.80183 -6.89131 0.135051
lclavicle -6.67033e-16 -6.94421e-15 0
lhumerus -46.4851 -33.4284 114.182
lradius 56.1179 0 0
lwrist 6.40786 0 0
lhand 6.07635 0.394784 0
lfingers 7.12502 0 0
lthumb 31.3752 27.5016 0
rclavicle -6.67033e-16 -6.94421e-15 0
rhumerus -30.284 41.9042 -90.1649
rradius 101.324 0 0
rwrist 13.7326 0 0
rhand 1.03252 -13.8597 0
rfingers 7.12502 0 0
rthumb 26.5617 -761.796 0
511
root 5.52166 16.4517 -5.43909 -135.354 88.0286 -141.148
lfemur -24.3765 -15.9026 -21.9348
ltibia 47.4359 0 0
lfoot -25.8737 -5.66157 0
ltoes 13.337 0 0
rfemur -57.7 5.27072 8.64557
rtibia 67.8729 0 0
rfoot 7.92012 10.5641 0
rtoes -16.8696 0 0
lowerback 6.51648 -0.389491 -1.74771
upperback 0.712821 -0.557018 1.66093
thorax -2.87347 -0.248228 2.7414
lowerneck -8.76135 -10.6001 -2.51023
upperneck 10.0753 -14.202 2.40168
head 4.81246 -6.91143 0.149821
lclavicle -7.00716e-16 -6.81832e-15 0
lhumerus -46.2162 -33.3533 113.827
lradius 56.0839 0 0
lwrist 6.6313 0 0
lhand 5.76644 0.359975 0
lfingers 7.12502 0 0
lthumb 31.0777 27.5004 0
rclavicle -7.00716e-16 -6.81832e-15 0
rhumerus -29.6142 41.5936 -89.9571
rradius 101.717 0 0
rwrist 13.0183 0 0
rhand 0.69572 -13.93 0
rfingers 7.12502 0 0
rthumb 26.2375 -761.891 0
512
root 5.5305 16.4508 -5.41375 -134.675 88.0188 -140.464
lfemur -24.288 -15.5791 -21.8975
ltibia 47.4052 0 0
lfoot -25.9458 -5.43528 0
ltoes 13.1732 0 0
rfemur -57.5414 5.0654 8.73378
rtibia 67.7059 0 0
rfoot 7.9166 10.5438 0
rtoes -16.938 0 0
lowerback 6.49065 -0.400151 -1.79673
upperback 0.72841 -0.572982 1.66603
thorax -2.84028 -0.257013 2.77477
lowerneck -8.7202 -10.6302 -2.52609
upperneck 10.1075 -14.2493 2.45341
head 4.82308 -6.93156 0.16459
lclavicle -7.34399e-16 -6.69242e-15 0
lhumerus -45.9473 -33.2782 113.472
lradius 56.0498 0 0
lwrist 6.85474 0 0
lhand 5.45652 0.325166 0
lfingers 7.12502 0 0
lthumb 30.7802 27.4993 0
rclavicle -7.34399e-16 -6.69242e-15 0
rhumerus -28.9443 41.2831 -89.7493
rradius 102.11 0 0
rwrist 12.304 0 0
rhand 0.358922 -14.0002 0
rfingers 7.12502 0 0
rthumb 25.9133 -761.986 0
513
root 5.53934 16.45 -5.38841 -133.997 88.009 -139.78
lfemur -24.1996 -15.2556 -21.8603
ltibia 47.3746 0 0
lfoot -26.0178 -5.209 0
ltoes 13.0094 0 0
rfemur -57.3827 4.86007 8.82199
rtibia 67.5389 0 0
rfoot 7.91309 10.5235 0
rtoes -17.0063 0 0
lowerback 6.46481 -0.41081 -1.84575
upperback 0.743999 -0.588947 1.67113
thorax -2.8071 -0.265798 2.80814
lowerneck -8.67904 -10.6603 -2.54195
upperneck 10.1398 -14.2965 2.50514
head 4.83371 -6.95168 0.17936
lclavicle -7.68082e-16 -6.56652e-15 0
lhumerus -45.6784 -33.2031 113.117
lradius 56.0158 0 0
lwrist 7.07819 0 0
lhand 5.14661 0.290356 0
lfingers 7.12502 0 0
lthumb 30.4827 27.4981 0
rclavicle -7.68082e-16 -6.56652e-15 0
rhumerus -28.2745 40.9725 -89.5415
rradius 102.503 0 0
rwrist 11.5897 0 0
rhand 0.0221244 -14.0705 0
rfingers 7.12502 0 0
rthumb 25.5892 -762.081 0
514
root 5.54819 16.4491 -5.36306 -133.318 87.9991 -139.096
lfemur -24.1112 -14.9321 -21.8231
ltibia 47.3439 0 0
lfoot -26.0899 -4.98271 0
ltoes 12.8456 0 0
rfemur -57.2241 4.65475 8.9102
rtibia 67.372 0 0
rfoot 7.90958 10.5032 0
rtoes -17.0747 0 0
lowerback 6.43897 -0.421469 -1.89478
upperback 0.759588 -0.604912 1.67623
thorax -2.77392 -0.274584 2.84151
lowerneck -8.63789 -10.6904 -2.55781
upperneck 10.172 -14.3438 2.55687
head 4.84433 -6.97181 0.19413
lclavicle -8.01765e-16 -6.44063e-15 0
lhumerus -45.4095 -33.128 112.762
lradius 55.9817 0 0
lwrist 7.30163 0 0
lhand 4.8367 0.255547 0
lfingers 7.12502 0 0
lthumb 30.1852 27.4969 0
rclavicle -8.01765e-16 -6.44063e-15 0
rhumerus -27.6047 40.662 -89.3337
rradius 102.896 0 0
rwrist 10.8754 0 0
rhand -0.314673 -14.1408 0
rfingers 7.12502 0 0
rthumb 25.265 -762.176 0
515
root 5.55703 16.4483 -5.33772 -132.639 87.9893 -138.412
lfemur -24.0227 -14.6087 -21.7859
ltibia 47.3132 0 0
lfoot -26.162 -4.75642 0
ltoes 12.6818 0 0
rfemur -57.0654 4.44943 8.99841
rtibia 67.205 0 0
rfoot 7.90606 10.4829 0
rtoes -17.1431 0 0
lowerback 6.41313 -0.432129 -1.9438
upperback 0.775178 -0.620876 1.68133
thorax -2.74073 -0.283369 2.87488
lowerneck -8.59673 -10.7204 -2.57367
upperneck 10.2042 -14.391 2.60861
head 4.85496 -6.99193 0.208899
lclavicle -8.35448e-16 -6.31473e-15 0
lhumerus -45.1406 -33.0529 112.408
lradius 55.9477 0 0
lwrist 7.52507 0 0
lhand 4.52678 0.220737 0
lfingers 7.12502 0 0
lthumb 29.8877 27.4957 0
rclavicle -8.35448e-16 -6.31473e-15 0
rhumerus -26.9349 40.3514 -89.126
rradius 103.288 0 0
rwrist 10.1611 0 0
rhand -0.651471 -14.211 0
rfingers 7.12502 0 0
rthumb 24.9409 -762.272 0
516
root 5.56587 16.4474 -5.31238 -131.96 87.9795 -137.728
lfemur -23.9343 -14.2852 -21.7487
ltibia 47.2826 0 0
lfoot -26.234 -4.53013 0
ltoes 12.518 0 0
rfemur -56.9068 4.24411 9.08662
rtibia 67.038 0 0
rfoot 7.90255 10.4626 0
rtoes -17.2115 0 0
lowerback 6.3873 -0.442788 -1.99282
upperback 0.790767 -0.636841 1.68644
thorax -2.70755 -0.292154 2.90825
lowerneck -8.55558 -10.7505 -2.58953
upperneck 10.2364 -14.4383 2.66034
head 4.86558 -7.01206 0.223669
lclavicle -8.69131e-16 -6.18883e-15 0
lhumerus -44.8716 -32.9778 112.053
lradius 55.9136 0 0
lwrist 7.74852 0 0
lhand 4.21687 0.185928 0
lfingers 7.12502 0 0
lthumb 29.5902 27.4946 0
rclavicle -8.69131e-16 -6.18883e-15 0
rhumerus -26.265 40.0409 -88.9182
rradius 103.681 0 0
rwrist 9.44684 0 0
rhand -0.988269 -14.2813 0
rfingers 7.12502 0 0
rthumb 24.6167 -762.367 0
517
root 5.57471 16.4466 -5.28703 -131.281 87.9697 -137.044
lfemur -23.8459 -13.9617 -21.7115
ltibia 47.2519 0 0
lfoot -26.3061 -4.30384 0
ltoes 12.3542 0 0
rfemur -56.7481 4.03878 9.17483
rtibia 66.8711 0 0
rfoot 7.89903 10.4423 0
rtoes -17.2798 0 0
lowerback 6.36146 -0.453448 -2.04184
upperback 0.806356 -0.652806 1.69154
thorax -2.67437 -0.300939 2.94163
lowerneck -8.51442 -10.7806 -2.60539
upperneck 10.2686 -14.4855 2.71207
head 4.87621 -7.03218 0.238438
lclavicle -9.02814e-16 -6.06293e-15 0
lhumerus -44.6027 -32.9027 111.698
lradius 55.8796 0 0
lwrist 7.97196 0 0
lhand 3.90696 0.151118 0
lfingers 7.12502 0 0
lthumb 29.2927 27.4934 0
rclavicle -9.02814e-16 -6.06293e-15 0
rhumerus -25.5952 39.7303 -88.7104
rradius 104.074 0 0
rwrist 8.73255 0 0
rhand -1.32507 -14.3516 0
rfingers 7.12502 0 0
rthumb 24.2926 -762.462 0
518
root 5.58355 16.4457 -5.26169 -130.602 87.9599 -136.36
lfemur -23.7575 -13.6382 -21.6742
ltibia 47.2213 0 0
lfoot -26.3781 -4.07755 0
ltoes 12.1904 0 0
rfemur -56.5895 3.83346 9.26304
rtibia 66.7041 0 0
rfoot 7.89552 10.422 0
rtoes -17.3482 0 0
lowerback 6.33562 -0.464107 -2.09087
upperback 0.821945 -0.668771 1.69664
thorax -2.64118 -0.309725 2.975
lowerneck -8.47327 -10.8107 -2.62125
upperneck 10.3009 -14.5328 2.7638
head 4.88683 -7.05231 0.253208
lclavicle -9.36497e-16 -5.93704e-15 0
lhumerus -44.3338 -32.8276 111.343
lradius 55.8455 0 0
lwrist 8.1954 0 0
lhand 3.59705 0.116309 0
lfingers 7.12502 0 0
lthumb 28.9952 27.4922 0
rclavicle -9.36497e-16 -5.93704e-15 0
rhumerus -24.9254 39.4197 -88.5026
rradius 104.467 0 0
rwrist 8.01826 0 0
rhand -1.66186 -14.4219 0
rfingers 7.12502 0 0
rthumb 23.9684 -762.557 0
